<svg xmlns="http://www.w3.org/2000/svg" width="136" height="61" viewBox="0 0 136 61">
    <g fill="none" fill-rule="evenodd">
        <path fill="#117C8E" d="M66.98 37.464c.687.043 4.135.116 6.587 1.922l-.611 5.689c-2.237-1.677-4.687-2.107-6.45-2.107-3.483 0-6.02 2.494-6.02 6.708 0 3.31 1.978 5.16 4.816 5.16 2.02 0 4.953-.97 6.846-2.26l-.622 5.775c-2.064 1.419-5.923 1.989-6.87 1.989-6.62 0-10.448-4-10.448-10.105 0-7.783 5.203-12.77 12.771-12.77zm-41.864-7.35L22.623 51.74c-.302 2.924-.13 3.397.946 3.397.3 0 .601-.043.903-.086l-.516 4.687c-.903.344-1.764.602-3.054.602-3.654 0-5.116-1.72-4.6-6.88l2.752-23.347h6.062zm10.38 7.996l-1.16 10.921c-.344 3.182.43 5.805 3.44 5.805 2.924 0 4.944-2.15 5.331-5.762l1.204-10.964h6.02l-1.462 14.06c-.3 2.924.129 3.483 1.204 3.483.258 0 .56-.043.86-.086l-.473 4.17c-.817.345-2.107.603-3.139.603-2.623 0-3.87-1.204-3.784-3.784h-.258c-1.462 2.15-4.3 3.74-7.31 3.74-5.503 0-8.513-3.482-7.739-10.792l1.204-11.394h6.062zm51.716-.688c3.01 0 5.374 1.462 6.277 3.482h.258l.297-2.88h4.906L97.49 52.126c-.302 2.924.085 3.483 1.16 3.483.301 0 .602-.043.903-.086l-.473 4.17c-.903.345-2.106.603-3.139.603-2.623 0-3.87-1.161-3.826-3.397h-.302c-1.505 2.279-4.213 3.44-7.352 3.44-5.375 0-8.6-4.472-8.6-10.32 0-7.61 4.86-12.598 11.352-12.598zm.601 5.331c-3.181 0-5.675 2.666-5.675 6.966 0 3.225 1.72 5.332 4.386 5.332 3.569 0 5.719-2.881 5.719-7.009 0-3.268-1.635-5.289-4.43-5.289zM4.018 33.706l-.721 6.67c-.232 2.267.129 3.967 2.524 3.967 2.086 0 3.503-1.52 3.76-4.044l.722-6.593h2.91L12.03 44.678c-.464 4.43-2.087 7.804-7.65 7.804-1.494 0-3.169-.309-4.379-.901l.257-2.524c1.108.592 2.885.876 4.328.876 2.42 0 4.147-1.083 4.481-4.173l.052-.541h-.155c-.798.979-2.086 1.622-3.837 1.622-3.194 0-5.178-2.06-4.714-6.233l.747-6.902h2.859zM14.796 4.074c.688.043 4.138.123 6.589 1.93l-.612 5.68c-2.236-1.676-4.687-2.106-6.45-2.106-3.483 0-6.02 2.494-6.02 6.708 0 3.31 1.978 5.16 4.816 5.16 2.021 0 4.956-.976 6.848-2.266l-.617 5.732c-2.064 1.419-5.93 2.037-6.876 2.037-6.621 0-10.448-3.999-10.448-10.104 0-7.783 5.202-12.771 12.77-12.771zm21.626.086c6.062 0 10.663 3.999 10.663 10.492 0 7.18-5.246 12.298-12.47 12.298-6.277 0-10.75-4.086-10.75-10.492 0-7.439 5.118-12.298 12.557-12.298zm25.915-.086c.688.043 4.137.116 6.588 1.922l-.611 5.689c-2.236-1.677-4.687-2.107-6.45-2.107-3.483 0-6.02 2.494-6.02 6.708 0 3.31 1.978 5.16 4.816 5.16 2.021 0 4.953-.97 6.846-2.26l-.622 5.775c-2.064 1.419-5.923 1.988-6.87 1.988-6.62 0-10.448-3.999-10.448-10.104 0-7.783 5.203-12.771 12.771-12.771zm21.625.086c6.063 0 10.664 3.999 10.664 10.492 0 7.18-5.246 12.298-12.47 12.298-6.278 0-10.75-4.086-10.75-10.492 0-7.439 5.117-12.298 12.556-12.298zM36.25 9.45c-3.698 0-6.278 2.71-6.278 6.966 0 3.096 1.72 5.245 4.772 5.245 3.613 0 6.236-2.837 6.236-7.094 0-3.053-1.72-5.117-4.73-5.117zm47.54 0c-3.698 0-6.278 2.71-6.278 6.966 0 3.096 1.72 5.245 4.773 5.245 3.612 0 6.235-2.837 6.235-7.094 0-3.053-1.72-5.117-4.73-5.117z"/>
        <path fill="#5DB8B6" d="M114.341 37.422c2.666 0 5.719.473 7.826 1.204l-.645 5.246c-1.849-.86-4.988-1.72-7.395-1.72-1.807 0-3.053.559-3.053 1.892 0 1.375 1.633 1.677 4.343 2.494 2.794.816 6.75 1.762 6.75 6.105 0 4-2.408 7.697-10.105 7.697-4.6 0-8.169-1.634-8.814-2.107l.602-5.203c1.935 1.29 5.934 2.58 8.728 2.58 1.763 0 3.182-.645 3.182-1.977 0-1.42-1.978-1.72-4.256-2.452-3.483-1.118-6.794-2.45-6.794-6.363 0-5.16 3.569-7.396 9.631-7.396zm21.206-8.17l-8.602 31.088h-3.483l8.601-31.088h3.484zM110.613 0l-.43 3.956c2.193.172 4.429.602 6.063 1.16l-.567 5.284c-1.85-.86-5.066-1.757-7.474-1.757-1.806 0-3.053.559-3.053 1.892 0 1.376 1.634 1.677 4.343 2.494 2.795.817 6.75 1.763 6.75 6.105 0 3.698-2.063 7.138-8.427 7.654l-.473 4.3h-3.483l.474-4.343c-3.699-.344-6.45-1.59-7.01-2.02l.547-5.242c1.936 1.29 5.989 2.618 8.784 2.618 1.763 0 3.182-.644 3.182-1.977 0-1.42-1.978-1.72-4.257-2.451-3.482-1.118-6.794-2.451-6.794-6.364 0-4.644 2.881-6.923 7.87-7.31L107.13 0h3.483z"/>
    </g>
</svg>
