<svg xmlns="http://www.w3.org/2000/svg" xmlns:xlink="http://www.w3.org/1999/xlink" width="209.601" height="53.723" viewBox="0 0 55.457 14.214" xmlns:v="https://vecta.io/nano"><style><![CDATA[.W{fill:none}.X{image-rendering:optimizeQuality}.Y{shape-rendering:geometricPrecision}.Z{fill:#8cc64b}.a{fill-rule:nonzero}.b{stroke:#1d4c39}.c{fill:#1d4c39}.d{stroke:#1a4f38}.e{stroke-width:62.547}.f{stroke-width:56.937}.g{stroke-linecap:round}.h{stroke-linejoin:round}.i{stroke-width:100.055}]]></style><defs><clipPath id="A"><path d="M3004 2053c1353 0 2449 1096 2449 2449S4357 6952 3004 6952 554 5855 554 4502s1097-2449 2450-2449z"/></clipPath><clipPath id="B"><path d="M1842 4796s-463-425-684-76c-219 348 341 1465 1865 1411 1523 54 2083-1063 1864-1411-220-349-683 76-683 76 155 339-2518 339-2362 0z"/></clipPath><clipPath id="C"><path d="M3004 2053c1353 0 2449 1096 2449 2449S4357 6952 3004 6952 554 5855 554 4502s1097-2449 2450-2449z"/></clipPath><clipPath id="D"><path d="M3755 4516c-166-213-411-299-547-194-135 106-110 365 57 578 166 213 411 300 547 194 135-106 110-365-57-578z"/></clipPath><clipPath id="E"><path d="M3004 2053c1353 0 2449 1096 2449 2449S4357 6952 3004 6952 554 5855 554 4502s1097-2449 2450-2449z"/></clipPath><clipPath id="F"><path d="M2261 4516c166-213 411-299 547-194 135 106 110 365-57 578-166 213-411 300-547 194-135-106-110-365 57-578z"/></clipPath><clipPath ><path d="M3004 2053c1353 0 2449 1096 2449 2449S4357 6952 3004 6952 554 5855 554 4502s1097-2449 2450-2449z"/></clipPath><clipPath id="H"><path d="M1435 2583s-78-183-254-304c-293-200-761-314-879 257-15-30-533 252-39 1094 38 66 44 77 27 346-25 409 253 262 452-41 119-180 188-410 206-625 16-189-8-429-119-735 0 0 224 152 312 296 74-73 161-148 265-220 20-40 31-68 29-68z"/></clipPath><clipPath id="I"><path d="M4550 2553s78-183 255-304c293-200 761-314 879 257 14-30 533 252 39 1095-39 65-45 76-28 345 26 409-253 262-452-41-118-180-188-410-206-625-15-189 8-429 119-735 0 0-224 152-312 296-73-73-161-148-264-220-20-40-32-68-30-68z"/></clipPath><path id="J" d="M3529.541 2993.131c349.199 0 632.068 282.869 632.068 632.068s-282.869 632.327-632.068 632.327-632.327-283.128-632.327-632.327 283.128-632.068 632.327-632.068z"/><path id="K" d="M1842 4796s-463-425-684-76c-219 348 341 1465 1865 1411 1523 54 2083-1063 1864-1411-220-349-683 76-683 76 155 339-2518 339-2362 0z"/><path id="L" d="M1435 2583s-78-183-254-304c-293-200-761-314-879 257-15-30-533 252-39 1094 38 66 44 77 27 346-25 409 253 262 452-41 119-180 188-410 206-625 16-189-8-429-119-735 0 0 224 152 312 296 74-73 161-148 265-220 20-40 31-68 29-68z"/><path id="M" d="M4550 2553s78-183 255-304c293-200 761-314 879 257 14-30 533 252 39 1095-39 65-45 76-28 345 26 409-253 262-452-41-118-180-188-410-206-625-15-189 8-429 119-735 0 0-224 152-312 296-73-73-161-148-264-220-20-40-32-68-30-68z"/><path id="N" d="M41.208 6.714q0 .455-.541.565-.248.058-.899.058 0 2.085 0 3.813-.501.265-.737.265-.34 0-.34-.374 0-.265.006-.783.012-.524.012-2.932-.709 0-1.123-.069-.202-.363-.202-.588 0-.455.904-.455.075 0 .219.012.144.012.202.012V4.139q0-.213.15-.363.156-.15.374-.15.213 0 .369.15.161.15.161.363 0 .484 0 2.068.374-.012.904-.012.225 0 .38.15.161.144.161.369z"/><path id="O" d="M43.021 5.239q0 .248-.167.444-.167.19-.415.19-.253 0-.449-.19-.19-.196-.19-.444 0-.242.156-.426.161-.19.409-.19.265 0 .461.179.196.173.196.438zm-.069 1.682q.069.403-.029 1.071-.029.789-.04 1.066-.017 1.031-.029 1.1-.023.628-.109 1.1-.346.156-.547.156-.426 0-.426-.513 0-.351 0-.973.052-.685.052-2.258 0-1.267.628-1.267.501 0 .501.518z"/></defs><g class="c"><path d="M22.062 2.735c-1.062.038-2.146.008-3.182.273-.408.109-.795.466-.703.923l-.071 6.797c-.01.634.585 1.161 1.211 1.097l3.714-.044c.704-.014 1.047-.948.638-1.473-.326-.488-.962-.423-1.471-.422-.699-.002-1.399.011-2.098.018v-1.8c.782-.033 1.586.078 2.353-.113.692-.197.867-1.201.318-1.645-.373-.276-.878-.141-1.309-.185-.455-.002-.91.002-1.365.003V4.674l3.151-.023c.62-.196.847-1.132.341-1.574-.408-.369-1.015-.327-1.526-.342z"/><path d="M26.19 2.738c-.799-.023-1.484.534-1.845 1.211-.512.851-.605 1.871-.692 2.828-.496.101-.77.678-.553 1.131.124.287.282.645.63.698l.337 2.652c.076.408.499.677.901.561.352-.077.781-.22.936-.564.071-.468-.047-.953-.061-1.427l-.119-1.255c.566.007 1.279.019 1.613-.532.282-.483.048-1.187-.506-1.348-.371-.119-.767-.077-1.15-.065.075-.62.095-1.316.491-1.829.092.437.233.986.732 1.111.604.226 1.282-.282 1.292-.913.086-1.058-.714-2.219-1.831-2.256l-.178-.005z"/><path d="M29.964 5.86c-.938-.001-1.77.587-2.265 1.352-.65.959-.751 2.309-.069 3.28.575.877 1.622 1.473 2.686 1.328.864-.102 1.803-.495 2.214-1.307.236-.535-.175-1.168-.723-1.27.412-.199.62-.674.502-1.113-.177-1.032-.967-1.995-2.005-2.241a1.57 1.57 0 0 0-.34-.03zm.765 3.691c-.322.182-.713.383-1.072.164-.257-.131-.251-.256.056-.2l1.167-.04-.151.076z"/><path d="M35.348 5.896c-1.2.044-2.244.936-2.727 1.996-.408.998-.351 2.25.388 3.083.649.807 1.82 1.08 2.772.696.682-.249 1.356-.686 1.686-1.353.281-.657-.351-1.475-1.059-1.328-.605.116-.977.78-1.609.796-.369.025-.384-.445-.407-.706.015-.502.412-.928.833-1.156.199-.136.284.198.434.277.286.341.814.361 1.142.067.355-.246.578-.728.347-1.131-.301-.729-.95-1.305-1.799-1.24z"/><path d="M39.21 3.2c-.487.017-1.005.461-.928.976v1.631c-.47-.004-1.093.052-1.272.575-.111.397.008.877.298 1.171.281.199.649.162.975.197l.005 3.536c.099.509.741.657 1.168.471.344-.126.813-.313.744-.761V7.753c.528-.009 1.196-.136 1.382-.712.221-.584-.254-1.278-.884-1.265-.15-.048-.423.043-.498-.063-.035-.66.083-1.348-.112-1.989-.141-.336-.529-.522-.879-.524z"/><path d="M42.431 5.983c-.609.003-1.022.653-.988 1.218l-.078 3.907c.041.532.637.863 1.126.694.384-.048.75-.345.721-.76l.162-4.292c-.041-.472-.482-.799-.943-.767z"/><path d="M42.379 4.199c-.626-.021-1.096.622-.977 1.217.073.75 1.074 1.138 1.649.665.633-.468.449-1.607-.318-1.826-.114-.038-.234-.057-.354-.056zm2.026-1.479c-.569.039-.986.592-.948 1.148l-.079 6.695c-.041.487.201 1.087.742 1.157.254.055.504-.106.725-.137 1.067.549 2.438.193 3.199-.705.946-1.03.939-2.697.131-3.805-.587-.878-1.714-1.368-2.752-1.12-.026-.816.056-1.642-.057-2.453-.104-.448-.496-.784-.962-.781zm1.606 5.157c.474.045.777.592.742 1.036.094.501-.415.914-.876.907-.311-.095-.605-.407-.543-.746l.002-.99a1.14 1.14 0 0 1 .675-.207zm3.874-1.895c-.568-.03-.96.502-1.011 1.022-.124 1.116-.093 2.245-.119 3.367.011.479-.061 1.132.456 1.383.399.178.896.053 1.234-.197.303-.368.173-.892.238-1.332l.149-2.945c.003-.448-.067-.984-.516-1.207-.131-.072-.283-.094-.43-.092z"/><path d="M49.763 4.195c-.771.004-1.243.995-.804 1.613.357.612 1.359.655 1.724.029.424-.586.044-1.5-.665-1.619a1.05 1.05 0 0 0-.256-.023zm3.25-.994c-.415.019-.827.349-.911.751v1.852c-.493-.026-1.121.094-1.299.628-.102.421.069.93.415 1.191.275.129.595.094.891.128l.008 3.505c.054.461.576.692.988.546.366-.116.907-.25.915-.715V7.756c.525-.024 1.243-.145 1.389-.749.171-.534-.193-1.159-.764-1.211-.206-.036-.416-.037-.625-.038-.036-.676.085-1.381-.119-2.037-.142-.34-.534-.525-.888-.52z"/></g><g transform="matrix(.010962 0 0 .010962 -30.192844 -32.63379)" fill-rule="evenodd" text-rendering="geometricPrecision" class="X Y"><use xlink:href="#J" class="Z"/><g transform="matrix(.258093 0 0 .258093 2754.2338 2463.2655)" clip-path="url(#A)"><use xlink:href="#K" fill="#fefefe"/><g clip-path="url(#B)"><path d="M1648 4444s-312 101-498 894" class="W d e"/><g fill="#1a4f38" class="a"><path d="M1534 5153l-21 52-20 56-19 59-20 63-18 67-19 72-17 75-61-13 18-77 18-73 19-68 20-65 20-61 21-57 21-54 21-50 21-47 21-43 21-41 21-37 21-35 21-32 20-29 20-27 19-24 19-22 18-19 18-18 16-15 16-14 14-12 14-10 24-16 18-10 7-3 5-3 4-1 2-1 20 59-1 1-4 1-5 3-6 3-8 5-9 6-10 7-12 9-13 10-14 12-15 14-16 16-16 18-18 20-18 22-18 25-19 28-20 30-20 33-20 36-20 39-21 42-20 45zm363 378l-1 56 1 59 2 63 4 66 5 69 8 73 10 76-62 8-10-77-8-74-6-71-4-67-2-64-1-61 1-57 2-55 4-51 5-48 5-46 7-42 7-40 9-38 8-34 10-32 9-30 10-27 10-25 21-44 9-18 10-16 9-15 9-12 8-11 7-9 6-7 5-6 9-9 40 48h1l-2 1-2 3-4 4-5 6-6 7-6 9-8 11-7 12-9 15-9 16-9 19-9 20-9 23-9 25-9 28-9 30-9 33-7 35-7 38-7 41-5 44-5 46-3 50zm548 133l-1 64 1 67 2 71 4 75 6 79 7 82 10 87-62 8-10-88-8-84-5-80-4-77-3-72v-134l3-61 3-58 5-55 6-51 6-48 8-45 8-43 9-39 9-36 9-33 10-31 10-28 10-26 10-23 10-21 9-18 9-16 9-14 8-13 7-10 6-8 5-6 4-5 5-5 43 45h1l-2 1-3 3-3 5-5 7-6 8-7 10-7 13-8 14-9 17-9 19-9 21-9 23-9 27-10 29-9 31-9 35-8 37-8 40-7 44-6 46-6 50-4 53-4 57z"/></g><g class="W d e"><path d="M3014 5077v1054m1367-1687s312 101 497 894"/></g><g fill="#1a4f38" class="a"><path d="M4574 5190l20 57 20 61 20 64 19 69 19 73 18 76-61 14-18-76-18-71-19-67-19-63-20-60-20-56-20-52-21-48-20-46-20-42-21-39-20-35-20-33-19-31-19-27-19-25-18-22-17-21-17-18-16-16-15-13-14-12-12-11-12-9-11-7-9-6-8-4-6-4-5-2-3-1-2-1 21-59 2 1 9 3 7 4 8 4 10 6 11 7 12 9 14 10 15 12 15 13 17 16 17 17 18 20 19 22 19 24 20 26 21 30 20 32 21 34 21 38 21 40 22 44 21 47 21 50zm-379 392l-1 61-2 65-4 68-6 72-8 75-9 78-62-8 9-77 8-74 6-70 4-67 2-63 1-60-1-56-2-54-4-50-4-47-6-44-6-42-7-38-8-36-8-33-9-31-9-28-9-25-10-23-9-21-9-19-9-17-8-15-8-12-7-11-7-9-6-7-5-6-3-4-4-4 41-48 1 2 7 7 5 6 7 7 7 9 8 11 8 13 9 14 10 17 10 18 10 21 10 23 10 26 10 27 10 30 9 33 9 35 8 37 7 41 7 43 6 46 4 49 4 52 2 55zm-548 145l-1 69-2 72-4 77-6 80-8 84-10 88-62-8 10-87 8-82 5-79 4-75 3-71v-67l-1-64-2-60-3-57-5-53-5-50-7-46-7-44-8-40-8-37-9-35-9-31-9-29-9-27-10-23-9-21-9-19-8-17-8-14-8-13-6-10-6-8-5-7-4-5-4-4 44-45 1 2 3 3 4 5 5 6 7 8 7 10 7 13 9 14 9 16 9 18 10 21 10 23 10 26 10 28 10 31 10 33 9 36 9 39 8 43 7 45 7 48 6 51 4 55 4 58 2 61z"/></g><path d="M1218 4400s313 1264 1790 1251c1476-13 1982-1224 1736-1437" class="W d e"/></g><g clip-path="url(#C)"><g class="b"><use xlink:href="#K" stroke-width="70.893" class="W"/><path d="M4042 4445c170 225 233 496 99 751-206 391-821 172-1060 98-72-23-88-27-155-7-220 66-869 313-1082-91-133-255-70-526 99-751 199-262 626-456 1052-456 425 1 849 195 1047 456z" stroke-width="87.513" fill="#9ecc47"/></g><path d="M3755 4516c-166-213-411-299-547-194-135 106-110 365 57 578 166 213 411 300 547 194 135-106 110-365-57-578z" fill="#00a859"/></g><g clip-path="url(#D)"><ellipse transform="matrix(-2.21407 -2.83061 -2.83061 2.21407 3418.62 4708.09)" rx="136" ry="87" cx="0" cy="0" fill="#13583c"/></g><g clip-path="url(#E)"><g class="a c"><path d="M1623 3470c270-662 829-419 793 319-41-104-78-291-157-428-74-129-189-219-343-148-119 55-210 200-293 257zm2569 0c-273-668-837-422-801 322 42-104 79-294 159-432 74-130 190-220 346-149 120 56 211 202 296 259zm-2582-419c-10-35 117-570 614-256-274-71-478 16-614 256zm2565 0c10-35-117-570-614-256 274-71 478 16 614 256z"/></g><path d="M2261 4516c166-213 411-299 547-194 135 106 110 365-57 578-166 213-411 300-547 194-135-106-110-365 57-578z" fill="#00a859"/></g><g clip-path="url(#F)"><ellipse transform="matrix(2.21407 -2.83061 2.83061 2.21407 2597.41 4708.09)" rx="136" ry="87" cx="0" cy="0" fill="#13583c"/></g></g><use xlink:href="#J" stroke-width="32.279" class="W b"/><g transform="matrix(.258093 0 0 .258093 2754.2338 2463.2655)"><path d="M846 3315l152-189c-19-33-31-54-30-54 65-89 153-189 267-288-2-12-4-26-9-42-30-96-60-193-102-253-43-60-109-109-175-133-67-24-55-30-91-36s-90-66-132-12c-43 54-91 0-91 121 0 120-60 512-12 663s229 229 223 223z" fill="#13573b"/><use xlink:href="#L" class="Z"/><g clip-path="url(#H)" stroke="#13583c" class="W f g h"><path d="M734 2426c84 77 150 277 217 405 50 95 115 138 113 120m-725-527c-44 104-19 314-26 458-6 107-47 174-52 157"/></g><use xlink:href="#L" class="W b i"/><path d="M5139 3285l-152-189c20-33 31-54 31-54-66-89-153-189-267-288 1-12 4-26 9-42 30-96 60-193 102-253s109-109 175-133 54-30 90-36 91-66 133-12 90 0 90 121c0 120 61 512 12 663-48 151-229 229-223 223z" fill="#13573b"/><use xlink:href="#M" class="Z"/><g clip-path="url(#I)" stroke="#13583c" class="W f g h"><path d="M5251 2396c-84 77-149 277-216 405-50 95-116 138-114 120m726-527c44 104 19 314 26 458 5 107 46 174 52 157"/></g><use xlink:href="#M" class="W b i"/></g><path d="M3370.298 4124.609c2.323 17.55 174.729 231.509 351.006-1.549-114.335 105.302-232.025 100.656-351.006 1.549z" class="a c"/></g><g class="Z"><path d="M23.444 3.747q0 .213-.144.363-.138.15-.357.15-.484 0-1.44-.017-.95-.023-1.423-.023-.461 0-.438.478.029.472.029 1.889h1.031q.248 0 .726-.006.484-.012.72-.012.225 0 .374.144.156.138.156.363 0 .605-1.014.605-.225 0-.668 0-.444-.012-1.348-.012v2.684q1.457-.058 2.99-.058.778 0 .778.559 0 .541-.709.541-.53 0-1.601.006-1.071.012-1.613.012-.53 0-.76-.202-.225-.202-.225-.732 0-1.129.046-3.375.046-2.246.046-3.375 0-.57 3.802-.57 1.043.006 1.043.588zm4.325 1.118q0 .662-.57.662-.351 0-.484-.317-.069-.294-.127-.588-.086-.317-.323-.317-.582 0-.858 1.169-.173.76-.173 1.601.588-.029 1.129-.029.668 0 .668.536 0 .576-1.06.576-.121 0-.369-.012-.242-.017-.363-.017.121.991.276 2.978-.432.305-.709.305-.42 0-.42-.876-.029-.156-.052-.472-.098-.639-.213-1.907l-.392.012q-.276-.386-.276-.628 0-.397.639-.397.006-1.48.334-2.356.599-1.63 1.786-1.63.697 0 1.123.501.432.501.432 1.204zm4.398 5.322q0 .167-.144.363-.288.374-.899.628-.57.236-1.077.236-.997 0-1.728-.743-.732-.743-.732-1.734 0-.985.691-1.797.726-.847 1.688-.847.726 0 1.331.697.605.691.605 1.429 0 .38-.472.53-.518.156-1.947.156-.334 0-.726-.017.081.49.438.829.357.34.853.34.334 0 .858-.305.524-.305.685-.305.225 0 .397.161.179.156.179.38zm-1.549-2.252q-.276-.501-.68-.501-.444 0-.876.616.334-.006 1.555-.115zm6.49 2.045q0 .127-.092.276-.305.49-.933.824-.628.334-1.221.334-.904 0-1.503-.685-.57-.651-.57-1.573 0-.835.484-1.555.49-.726 1.256-1.083.472-.213.899-.213.53 0 .916.374.392.369.49.904-.317.478-.611.478-.184 0-.392-.311-.207-.317-.386-.317-.501 0-.997.536-.49.536-.49 1.048 0 1.227.904 1.227.369 0 .939-.426.57-.426.726-.426.236 0 .409.179.173.173.173.409z"/><use xlink:href="#N"/><use xlink:href="#O"/><path d="M48.342 8.954q0 1.008-.697 1.734-.691.726-1.682.726-.628 0-1.169-.351-.317.242-.582.242-.415 0-.415-.737 0-1.089.029-3.255.035-2.172.035-3.26 0-.893.576-.893.57 0 .57.881 0 .708 0 2.506.392-.225.945-.225 1.043 0 1.728.806.662.766.662 1.826zm-1.141-.035q0-.582-.328-1.014-.363-.472-.922-.472-.582 0-1.054.449v1.578q.248.42.426.565.276.236.668.236.029 0 .109-.017 1.1-.253 1.1-1.325z"/><use xlink:href="#O" x="7.416"/><use xlink:href="#N" x="13.814"/></g></svg>